<?xml version="1.0" encoding="UTF-8" standalone="no"?>
<!DOCTYPE svg PUBLIC "-//W3C//DTD SVG 1.1//EN" "http://www.w3.org/Graphics/SVG/1.1/DTD/svg11.dtd">
<svg version="1.1" xmlns="http://www.w3.org/2000/svg" xmlns:xlink="http://www.w3.org/1999/xlink" preserveAspectRatio="xMidYMid meet" viewBox="0 0 640 360" width="640" height="360"><defs><path d="M0 0L640 0L640 360L0 360L0 0Z" id="gyflhEY96"></path><path d="M388.25 208.69L538.13 0L415.25 0L337.02 208.27L388.25 208.69Z" id="baDcYhaLF"></path><path d="M315.12 275.84L313.42 258.84L300.62 270.08L315.12 275.84Z" id="bmDaBY6dh"></path><path d="M367.32 212.09L404.37 206.62L424.67 187.69C432.44 180.59 437.3 176.14 439.24 174.37C439.62 174.03 439.27 173.41 438.79 173.55C433.13 175.2 418.99 179.3 396.36 185.87L367.32 212.09Z" id="d3vw77JJla"></path><path d="M297.21 208.13L262 0L240 0L295 208.13L297.21 208.13Z" id="h1dMvrBwsx"></path><linearGradient id="gradientb21Xlq3hvJ" gradientUnits="userSpaceOnUse" x1="253.61" y1="0" x2="296.94" y2="210.13"><stop style="stop-color: #ffffff;stop-opacity: 1" offset="0%"></stop><stop style="stop-color: #fffcaa;stop-opacity: 1" offset="100%"></stop></linearGradient><path d="M260 0L400.31 0L336.13 208.13L297.21 208.13L260 0Z" id="aGtledYkW"></path><path d="M447.86 296.37C447.83 307.93 393.87 317.17 327.44 316.99C261.01 316.81 207.11 307.27 207.14 295.71C207.17 284.15 261.13 274.91 327.56 275.09C393.98 275.28 447.89 284.81 447.86 296.37Z" id="a2iUrzPLv"></path><path d="M367 300.84C390.83 293.89 405.72 289.54 411.68 287.8C413.61 287.24 414.93 285.47 414.93 283.46C414.93 266.67 414.93 219.82 414.93 203.06C414.93 201.25 413.23 199.92 411.48 200.36C405.55 201.86 390.72 205.59 367 211.57L367 300.84Z" id="dA7rRd0B6"></path><path d="M244.54 211.02L289.48 208.84C272.25 195.6 261.49 187.33 257.18 184.02C255.97 183.09 254.54 182.5 253.02 182.32C244.3 181.28 221.64 178.58 213.22 177.58C211.99 177.43 211.28 178.93 212.17 179.79C216.49 183.95 227.28 194.36 244.54 211.02Z" id="c2LCuQyIT2"></path><path d="M365.6 300.84C368.87 300.84 371.52 298.19 371.52 294.92C371.52 277.6 371.52 229.49 371.52 211.65C371.52 209.82 370.05 208.33 368.22 208.3C342.53 207.95 271.55 206.96 246.56 206.62C242.83 206.56 239.78 209.57 239.78 213.3C239.78 230.81 239.78 279.27 239.78 297.45C239.78 299.32 241.3 300.84 243.17 300.84C268.84 300.84 340.44 300.84 365.6 300.84Z" id="a1CHZJ4AD"></path><path d="M438.07 170.74C438.69 170.56 439.34 170.92 439.52 171.53C439.67 172.07 439.82 172.58 439.98 173.12C440.16 173.72 439.81 174.36 439.21 174.54C430.74 177.02 406.43 184.16 397.97 186.65C397.35 186.83 396.69 186.5 396.47 185.9C396.25 185.29 396.06 184.77 395.86 184.22C395.59 183.49 396 182.7 396.74 182.49C405.23 180.07 429.53 173.16 438.07 170.74Z" id="d1ZRiyE26U"></path><path d="M241.4 0L104.26 0L251.4 207.31L295.54 208.13L241.4 0Z" id="kviaydNa"></path><path d="M209.84 182.84C208.77 181.87 208.64 180.23 209.55 179.11C209.98 178.57 209.67 178.96 210.1 178.43C210.97 177.35 212.58 177.24 213.59 178.19C219.99 184.21 237.33 200.52 243.74 206.54C244.77 207.51 244.82 209.14 243.84 210.17C243.49 210.55 244.18 209.82 243.82 210.19C242.84 211.23 241.21 211.3 240.15 210.34C233.71 204.49 216.28 188.69 209.84 182.84Z" id="b1wiC1f3AD"></path><path d="M409.73 178.8L536.8 0L560 0L414.47 177.47L409.73 178.8Z" id="a3pBaUbycA"></path><linearGradient id="gradientafyuyoFOa" gradientUnits="userSpaceOnUse" x1="548.01" y1="0" x2="390.24" y2="207.07"><stop style="stop-color: #ffffff;stop-opacity: 1" offset="0%"></stop><stop style="stop-color: #fffdb3;stop-opacity: 1" offset="100%"></stop></linearGradient><path d="M316.47 276.43L311.85 226.02L342.5 286.95L316.47 276.43Z" id="bqYg2bkTz"></path><path d="M340.29 287.5L299.41 270.93L280 287.5L340.29 287.5Z" id="a2yzAAQwgQ"></path><path d="M252.5 207.24L105.8 0L80 0L248.27 207.07L252.5 207.24Z" id="d1lHcQyGXg"></path><linearGradient id="gradienth199edsvAH" gradientUnits="userSpaceOnUse" x1="95" y1="0" x2="250" y2="206.91"><stop style="stop-color: #ffffff;stop-opacity: 1" offset="0%"></stop><stop style="stop-color: #fffdb3;stop-opacity: 1" offset="100%"></stop></linearGradient><path d="M337.5 208.13L416.9 0L398.9 0L335 208.13L337.5 208.13Z" id="csgO2oZwl"></path><linearGradient id="gradientkVndCOCeX" gradientUnits="userSpaceOnUse" x1="406.62" y1="0" x2="335" y2="210.46"><stop style="stop-color: #ffffff;stop-opacity: 1" offset="0%"></stop><stop style="stop-color: #fefa95;stop-opacity: 1" offset="100%"></stop></linearGradient><path d="M313.42 257.28L310.43 225L280 285.72L313.42 257.28Z" id="deU93Ve4x"></path><path d="M395.98 182.64C397.04 181.76 398.59 181.81 399.58 182.77C400.05 183.23 399.75 182.93 400.22 183.4C401.15 184.29 401.08 185.8 400.08 186.6C393.52 191.9 375.73 206.26 369.17 211.55C368.12 212.4 366.58 212.27 365.68 211.25C365.36 210.88 365.97 211.57 365.64 211.2C364.76 210.2 364.87 208.68 365.89 207.83C372.28 202.48 389.59 187.99 395.98 182.64Z" id="cg5KZ3jfR"></path><path d="M320.75 87.74L320.75 63.13L353.25 63.13L353.25 92.26L320.75 87.74ZM293.25 83.88L293.25 63.13L318.25 63.13L318.25 87.51L293.25 83.88ZM320.75 61.03L320.75 36.26L353.61 31.49L353.25 61.03L320.75 61.03ZM293.25 60.88L293.11 39.93L318.05 36.42L318.25 60.76L293.25 60.88Z" id="a38MQ8UvQO"></path><path d="M446.65 101.35L447.77 102.22L448.63 103.33L449.19 104.65L449.39 106.12L449.19 107.59L448.63 108.91L447.77 110.03L446.65 110.89L445.33 111.45L443.86 111.65L442.39 111.45L441.07 110.89L439.95 110.03L439.09 108.91L438.53 107.59L438.33 106.12L438.53 104.65L439.09 103.33L439.95 102.22L441.07 101.35L442.39 100.79L443.86 100.6L445.33 100.79L446.65 101.35ZM453.23 85.15L453.04 86.44L452.79 87.72L452.47 88.97L452.09 90.19L451.64 91.38L451.13 92.54L450.56 93.67L449.93 94.76L449.25 95.82L448.51 96.83L447.73 97.81L446.89 98.74L446.52 99.11L446.48 99.09L445.22 98.75L443.88 98.63L442.54 98.75L441.28 99.09L440.11 99.65L439.07 100.38L438.17 101.28L437.44 102.32L436.88 103.49L436.54 104.75L436.5 105.12L436.24 105.2L434.99 105.52L433.71 105.77L432.42 105.96L431.1 106.07L429.76 106.11L428.42 106.07L427.1 105.96L425.8 105.77L424.52 105.52L423.27 105.2L422.05 104.82L420.86 104.37L419.7 103.86L419.32 103.67L423.09 96.97L423.19 97.02L424.4 97.5L425.65 97.88L426.94 98.16L428.27 98.33L429.64 98.39L431 98.33L432.33 98.16L433.63 97.88L434.88 97.5L436.09 97.02L437.24 96.44L438.34 95.78L439.38 95.03L440.35 94.2L441.26 93.3L442.09 92.32L442.84 91.28L443.5 90.18L444.08 89.03L444.56 87.82L444.94 86.57L445.22 85.27L445.37 84.12L453.31 84.15L453.23 85.15ZM419.89 70.13L418.92 70.96L418.02 71.86L417.19 72.84L416.44 73.88L415.77 74.98L415.2 76.13L414.72 77.34L414.34 78.59L414.06 79.88L413.88 81.22L413.83 82.58L413.88 83.94L414.06 85.27L414.34 86.57L414.72 87.82L415.2 89.03L415.77 90.18L416.44 91.28L417.19 92.32L418.02 93.3L418.92 94.2L419.89 95.03L420.42 95.41L416.62 102.11L416.42 101.98L415.41 101.25L414.44 100.46L413.51 99.62L412.62 98.74L411.78 97.81L411 96.83L410.26 95.82L409.58 94.76L408.95 93.67L408.38 92.54L407.87 91.38L407.6 90.66L408 90.26L408.73 89.22L409.29 88.05L409.63 86.79L409.75 85.45L409.63 84.11L409.29 82.85L408.73 81.69L408 80.64L407.1 79.74L406.37 79.23L406.47 78.53L406.72 77.25L407.04 76L407.42 74.78L407.87 73.59L408.38 72.43L408.95 71.3L409.58 70.21L410.26 69.16L411 68.14L411.78 67.17L412.62 66.24L413.51 65.35L414.44 64.52L415.41 63.73L416.42 62.99L416.53 62.93L420.45 69.73L419.89 70.13ZM404.99 80.63L406.11 81.5L406.97 82.61L407.53 83.93L407.73 85.4L407.53 86.87L406.97 88.19L406.11 89.31L404.99 90.17L403.67 90.73L402.2 90.93L400.73 90.73L399.41 90.17L398.29 89.31L397.43 88.19L396.87 86.87L396.67 85.4L396.87 83.93L397.43 82.61L398.29 81.5L399.41 80.63L400.73 80.07L402.2 79.88L403.67 80.07L404.99 80.63ZM432.42 59.02L433.71 59.2L434.99 59.45L436.24 59.77L436.96 60L437.08 61.33L437.42 62.6L437.98 63.76L438.71 64.8L439.61 65.7L440.65 66.44L441.81 66.99L443.08 67.34L444.42 67.46L445.76 67.34L447.02 66.99L447.4 66.81L447.73 67.17L448.51 68.14L449.25 69.16L449.93 70.21L450.56 71.3L451.13 72.43L451.64 73.59L452.09 74.78L452.47 76L452.79 77.25L453.04 78.53L453.23 79.83L453.33 81.03L445.37 81.03L445.22 79.88L444.94 78.59L444.56 77.34L444.08 76.13L443.5 74.98L442.84 73.88L442.09 72.84L441.26 71.86L440.35 70.96L439.38 70.13L438.34 69.38L437.24 68.72L436.09 68.14L434.88 67.66L433.63 67.28L432.33 67L431 66.83L429.64 66.77L428.27 66.83L426.94 67L425.65 67.28L424.4 67.66L423.19 68.14L423.12 68.18L419.22 61.35L419.7 61.11L420.86 60.6L422.05 60.15L423.27 59.77L424.52 59.45L425.8 59.2L427.1 59.02L428.42 58.91L429.76 58.87L431.1 58.91L432.42 59.02ZM447.2 54.77L448.32 55.63L449.18 56.75L449.74 58.07L449.94 59.54L449.74 61.01L449.18 62.33L448.32 63.45L447.2 64.31L445.88 64.87L444.41 65.07L442.94 64.87L441.62 64.31L440.5 63.45L439.64 62.33L439.08 61.01L438.88 59.54L439.08 58.07L439.64 56.75L440.5 55.63L441.62 54.77L442.94 54.21L444.41 54.01L445.88 54.21L447.2 54.77Z" id="cqtApWQcz"></path><path d="M211.83 106.87C196.28 106.87 183.67 94.26 183.67 78.71C183.67 63.15 196.28 50.54 211.83 50.54C227.39 50.54 240 63.15 240 78.71C240 94.26 227.39 106.87 211.83 106.87Z" id="a27LRtjYCG"></path><path d="M223.07 61.37L211.88 77.53L211.78 77.53L200.62 61.37L198.89 61.37L210.94 78.76L198.94 96.05L200.65 96.05L211.76 79.93L211.86 79.93L222.97 96.05L224.7 96.05L212.7 78.76L224.78 61.37L224.78 61.37L223.07 61.37Z" id="k2FHuSvGpH"></path><linearGradient id="gradientaaih425VVt" gradientUnits="userSpaceOnUse" x1="211.83" y1="61.37" x2="211.83" y2="96.05"><stop style="stop-color: #58b0e3;stop-opacity: 1" offset="0%"></stop><stop style="stop-color: #f44e28;stop-opacity: 1" offset="100%"></stop></linearGradient><path d="M461.95 129.47C462.47 129.57 463.8 129.82 464.33 129.92C464.48 129.95 464.62 130.04 464.71 130.17C464.75 130.23 464.73 130.2 464.77 130.26C464.85 130.38 464.83 130.54 464.74 130.65C464.7 130.68 464.77 130.61 464.74 130.65C464.63 130.76 464.48 130.85 464.33 130.88C463.8 131.01 462.47 131.33 461.95 131.45C461.8 131.48 461.69 131.6 461.65 131.75C461.55 132.24 461.28 133.47 461.17 133.96C461.13 134.12 461.06 134.27 460.95 134.39C460.91 134.44 460.94 134.4 460.9 134.45C460.81 134.55 460.65 134.55 460.56 134.46C460.51 134.41 460.53 134.43 460.48 134.38C460.37 134.27 460.29 134.12 460.26 133.96C460.15 133.45 459.88 132.15 459.78 131.63C459.75 131.49 459.63 131.37 459.48 131.34C459 131.24 457.78 130.98 457.3 130.88C457.14 130.85 456.99 130.78 456.86 130.68C456.8 130.64 456.82 130.65 456.76 130.61C456.65 130.53 456.64 130.38 456.73 130.29C456.8 130.22 456.82 130.21 456.88 130.14C457 130.03 457.14 129.95 457.3 129.92C457.77 129.82 458.95 129.57 459.43 129.47C459.57 129.44 459.69 129.33 459.73 129.18C459.84 128.69 460.14 127.47 460.25 126.98C460.29 126.82 460.37 126.68 460.48 126.56C460.53 126.51 460.51 126.53 460.56 126.47C460.65 126.38 460.81 126.38 460.89 126.48C460.94 126.53 460.91 126.5 460.95 126.55C461.06 126.68 461.13 126.82 461.17 126.98C461.28 127.47 461.55 128.69 461.65 129.18C461.69 129.33 461.8 129.44 461.95 129.47Z" id="i1z3aCxiP6"></path><path d="M478.33 122.9C478.69 122.97 479.61 123.14 479.97 123.21C480.08 123.23 480.17 123.3 480.23 123.39C480.26 123.43 480.25 123.41 480.27 123.45C480.33 123.53 480.32 123.64 480.25 123.71C480.23 123.74 480.28 123.69 480.25 123.71C480.18 123.8 480.08 123.85 479.97 123.88C479.61 123.97 478.69 124.19 478.32 124.27C478.22 124.3 478.14 124.38 478.12 124.48C478.05 124.82 477.86 125.67 477.78 126.01C477.76 126.12 477.71 126.22 477.63 126.31C477.6 126.34 477.63 126.32 477.6 126.35C477.53 126.42 477.43 126.42 477.36 126.35C477.33 126.32 477.34 126.34 477.31 126.3C477.23 126.22 477.18 126.12 477.16 126.01C477.08 125.66 476.89 124.76 476.82 124.4C476.8 124.3 476.72 124.22 476.62 124.2C476.28 124.13 475.44 123.95 475.11 123.88C475 123.85 474.89 123.81 474.8 123.74C474.76 123.71 474.77 123.72 474.73 123.69C474.66 123.64 474.65 123.53 474.71 123.47C474.76 123.42 474.77 123.41 474.82 123.37C474.9 123.29 475 123.23 475.11 123.21C475.43 123.14 476.25 122.97 476.58 122.9C476.68 122.88 476.76 122.8 476.79 122.7C476.87 122.36 477.07 121.52 477.15 121.18C477.18 121.07 477.23 120.97 477.31 120.89C477.34 120.85 477.33 120.86 477.36 120.83C477.43 120.76 477.53 120.76 477.59 120.83C477.62 120.87 477.61 120.85 477.64 120.88C477.71 120.97 477.76 121.07 477.78 121.18C477.86 121.52 478.05 122.36 478.12 122.7C478.14 122.8 478.22 122.88 478.33 122.9Z" id="a2tf8JlxMB"></path><path d="M497.45 87.19C497.97 87.29 499.3 87.55 499.83 87.65C499.98 87.68 500.12 87.77 500.21 87.9C500.25 87.96 500.23 87.93 500.27 87.99C500.35 88.11 500.33 88.27 500.24 88.37C500.2 88.41 500.27 88.34 500.24 88.37C500.13 88.49 499.98 88.58 499.83 88.61C499.3 88.74 497.97 89.05 497.45 89.18C497.3 89.21 497.19 89.33 497.15 89.48C497.05 89.97 496.78 91.2 496.67 91.69C496.63 91.85 496.56 92 496.45 92.12C496.41 92.17 496.44 92.13 496.4 92.18C496.31 92.28 496.15 92.28 496.06 92.19C496.01 92.14 496.03 92.16 495.98 92.11C495.87 91.99 495.79 91.85 495.76 91.69C495.65 91.18 495.38 89.88 495.28 89.36C495.25 89.21 495.13 89.1 494.98 89.07C494.5 88.97 493.28 88.71 492.8 88.61C492.64 88.57 492.49 88.51 492.36 88.41C492.3 88.37 492.32 88.38 492.26 88.34C492.15 88.26 492.14 88.11 492.23 88.02C492.3 87.95 492.32 87.93 492.38 87.87C492.5 87.75 492.64 87.68 492.8 87.64C493.27 87.54 494.45 87.3 494.93 87.2C495.07 87.17 495.19 87.05 495.23 86.91C495.34 86.42 495.64 85.2 495.75 84.71C495.79 84.55 495.87 84.41 495.98 84.29C496.03 84.23 496.01 84.25 496.06 84.2C496.15 84.1 496.31 84.11 496.39 84.21C496.44 84.26 496.41 84.23 496.45 84.28C496.56 84.4 496.63 84.55 496.67 84.71C496.78 85.2 497.05 86.42 497.15 86.91C497.19 87.05 497.3 87.17 497.45 87.19Z" id="d2wbaWj7I"></path><path d="M472.69 132.59C473.05 132.66 473.97 132.83 474.33 132.9C474.44 132.92 474.53 132.98 474.59 133.07C474.62 133.12 474.61 133.09 474.64 133.14C474.69 133.22 474.68 133.33 474.61 133.4C474.59 133.43 474.64 133.38 474.61 133.4C474.54 133.48 474.44 133.54 474.33 133.57C473.97 133.65 473.05 133.87 472.68 133.96C472.58 133.98 472.5 134.06 472.48 134.17C472.41 134.51 472.22 135.36 472.14 135.7C472.12 135.81 472.07 135.91 471.99 135.99C471.96 136.03 471.99 136 471.96 136.04C471.89 136.11 471.79 136.11 471.72 136.04C471.69 136.01 471.71 136.02 471.67 135.99C471.59 135.91 471.54 135.81 471.52 135.7C471.44 135.34 471.26 134.44 471.18 134.09C471.16 133.99 471.08 133.91 470.98 133.88C470.64 133.81 469.8 133.64 469.47 133.56C469.36 133.54 469.25 133.49 469.16 133.43C469.12 133.4 469.13 133.41 469.09 133.38C469.02 133.32 469.01 133.22 469.08 133.16C469.12 133.11 469.13 133.1 469.18 133.05C469.26 132.97 469.36 132.92 469.47 132.9C469.79 132.83 470.61 132.66 470.94 132.59C471.04 132.57 471.12 132.49 471.15 132.39C471.23 132.05 471.43 131.2 471.51 130.87C471.54 130.76 471.59 130.66 471.67 130.58C471.7 130.54 471.69 130.55 471.73 130.51C471.79 130.45 471.89 130.45 471.95 130.52C471.98 130.56 471.97 130.53 472 130.57C472.07 130.66 472.12 130.76 472.14 130.87C472.22 131.2 472.41 132.05 472.48 132.39C472.5 132.49 472.58 132.57 472.69 132.59Z" id="h7M9T1nPzP"></path><path d="M447.33 120.09C447.69 120.16 448.61 120.33 448.97 120.4C449.08 120.42 449.17 120.48 449.23 120.57C449.26 120.61 449.25 120.59 449.27 120.63C449.33 120.72 449.32 120.83 449.25 120.9C449.23 120.93 449.28 120.88 449.25 120.9C449.18 120.98 449.08 121.04 448.97 121.07C448.61 121.15 447.69 121.37 447.32 121.46C447.22 121.48 447.14 121.56 447.12 121.67C447.05 122.01 446.86 122.86 446.78 123.2C446.76 123.31 446.71 123.41 446.63 123.49C446.6 123.53 446.63 123.5 446.6 123.54C446.53 123.61 446.43 123.61 446.36 123.54C446.33 123.51 446.34 123.52 446.31 123.49C446.23 123.41 446.18 123.31 446.16 123.2C446.08 122.84 445.89 121.94 445.82 121.59C445.8 121.48 445.72 121.41 445.62 121.38C445.28 121.31 444.44 121.13 444.11 121.06C444 121.04 443.89 120.99 443.8 120.93C443.76 120.9 443.77 120.91 443.73 120.88C443.66 120.82 443.65 120.72 443.71 120.66C443.76 120.61 443.77 120.6 443.82 120.55C443.9 120.47 444 120.42 444.11 120.4C444.43 120.33 445.25 120.16 445.58 120.09C445.68 120.07 445.76 119.99 445.79 119.89C445.87 119.55 446.07 118.7 446.15 118.37C446.18 118.26 446.23 118.16 446.31 118.07C446.34 118.04 446.33 118.05 446.36 118.01C446.43 117.95 446.53 117.95 446.59 118.02C446.62 118.05 446.61 118.03 446.64 118.07C446.71 118.15 446.76 118.26 446.78 118.37C446.86 118.7 447.05 119.55 447.12 119.89C447.14 119.99 447.22 120.07 447.33 120.09Z" id="a1TcjcISZj"></path><path d="M518.05 77.45C518.05 78.46 517.23 79.29 516.21 79.29C515.2 79.29 514.38 78.46 514.38 77.45C514.38 76.44 515.2 75.62 516.21 75.62C517.23 75.62 518.05 76.44 518.05 77.45Z" id="jzBiRQg9"></path><path d="M471.85 92.26C471.85 93.27 471.03 94.09 470.02 94.09C469.01 94.09 468.19 93.27 468.19 92.26C468.19 91.24 469.01 90.42 470.02 90.42C471.03 90.42 471.85 91.24 471.85 92.26Z" id="b2iGCdQyAS"></path><path d="M470.02 119.8C470.02 120.81 469.2 121.63 468.19 121.63C467.17 121.63 466.35 120.81 466.35 119.8C466.35 118.79 467.17 117.97 468.19 117.97C469.2 117.97 470.02 118.79 470.02 119.8Z" id="dDMUs6LEz"></path><path d="M504.62 37.09C505.14 37.19 506.47 37.45 506.99 37.55C507.15 37.57 507.29 37.67 507.37 37.8C507.41 37.85 507.39 37.83 507.43 37.88C507.51 38 507.5 38.16 507.4 38.27C507.37 38.31 507.44 38.23 507.4 38.27C507.29 38.39 507.15 38.47 507 38.51C506.47 38.63 505.14 38.95 504.61 39.08C504.47 39.11 504.35 39.23 504.32 39.37C504.21 39.86 503.94 41.1 503.83 41.59C503.8 41.75 503.72 41.89 503.62 42.02C503.57 42.06 503.61 42.03 503.56 42.08C503.47 42.18 503.32 42.18 503.23 42.08C503.18 42.03 503.2 42.06 503.15 42.01C503.04 41.89 502.96 41.75 502.93 41.59C502.82 41.07 502.55 39.77 502.44 39.26C502.41 39.11 502.3 39 502.15 38.97C501.67 38.86 500.45 38.61 499.96 38.5C499.81 38.47 499.66 38.4 499.52 38.31C499.46 38.26 499.48 38.28 499.43 38.23C499.32 38.16 499.31 38.01 499.4 37.91C499.47 37.85 499.48 37.83 499.55 37.77C499.66 37.65 499.81 37.57 499.96 37.54C500.44 37.44 501.62 37.2 502.09 37.1C502.24 37.07 502.36 36.95 502.39 36.81C502.51 36.32 502.8 35.09 502.92 34.61C502.96 34.45 503.03 34.3 503.15 34.19C503.2 34.13 503.18 34.15 503.23 34.1C503.32 34 503.47 34.01 503.56 34.11C503.6 34.16 503.58 34.13 503.62 34.18C503.73 34.3 503.8 34.45 503.83 34.61C503.94 35.1 504.21 36.32 504.32 36.8C504.35 36.95 504.47 37.06 504.62 37.09Z" id="ehLFTJXgG"></path><path d="M511.14 27.99C511.5 28.06 512.42 28.23 512.78 28.3C512.89 28.32 512.99 28.39 513.05 28.48C513.07 28.52 513.06 28.5 513.09 28.54C513.14 28.62 513.14 28.73 513.07 28.81C513.04 28.83 513.09 28.78 513.07 28.81C512.99 28.89 512.89 28.95 512.79 28.97C512.42 29.06 511.5 29.28 511.14 29.36C511.04 29.39 510.96 29.47 510.93 29.57C510.86 29.91 510.67 30.76 510.6 31.1C510.57 31.21 510.52 31.31 510.45 31.4C510.42 31.43 510.44 31.41 510.41 31.44C510.35 31.51 510.24 31.51 510.18 31.45C510.14 31.41 510.16 31.43 510.12 31.39C510.05 31.31 509.99 31.21 509.97 31.1C509.9 30.75 509.71 29.85 509.63 29.49C509.61 29.39 509.53 29.31 509.43 29.29C509.1 29.22 508.25 29.04 507.92 28.97C507.81 28.94 507.7 28.9 507.61 28.83C507.57 28.8 507.59 28.81 507.55 28.78C507.47 28.73 507.46 28.62 507.53 28.56C507.57 28.51 507.59 28.5 507.63 28.46C507.71 28.38 507.81 28.32 507.92 28.3C508.25 28.23 509.06 28.06 509.39 27.99C509.49 27.97 509.58 27.89 509.6 27.79C509.68 27.45 509.88 26.61 509.96 26.27C509.99 26.16 510.04 26.06 510.12 25.98C510.16 25.94 510.14 25.95 510.18 25.92C510.24 25.85 510.35 25.85 510.41 25.92C510.44 25.96 510.42 25.94 510.45 25.97C510.52 26.06 510.57 26.16 510.6 26.27C510.67 26.61 510.86 27.45 510.93 27.79C510.96 27.89 511.04 27.97 511.14 27.99Z" id="bAeIGyWJe"></path><path d="M495.83 28.95C496.19 29.02 497.11 29.19 497.47 29.26C497.58 29.28 497.67 29.35 497.73 29.44C497.76 29.48 497.75 29.46 497.77 29.5C497.83 29.58 497.82 29.69 497.75 29.76C497.73 29.79 497.78 29.74 497.75 29.76C497.68 29.85 497.58 29.9 497.47 29.93C497.11 30.02 496.19 30.23 495.82 30.32C495.72 30.35 495.64 30.43 495.62 30.53C495.55 30.87 495.36 31.72 495.28 32.06C495.26 32.17 495.21 32.27 495.13 32.36C495.1 32.39 495.13 32.36 495.1 32.4C495.03 32.47 494.93 32.47 494.86 32.4C494.83 32.37 494.84 32.39 494.81 32.35C494.73 32.27 494.68 32.17 494.66 32.06C494.58 31.71 494.39 30.8 494.32 30.45C494.3 30.35 494.22 30.27 494.12 30.25C493.78 30.17 492.94 30 492.61 29.93C492.5 29.9 492.39 29.86 492.3 29.79C492.26 29.76 492.27 29.77 492.23 29.74C492.16 29.69 492.15 29.58 492.21 29.52C492.26 29.47 492.27 29.46 492.32 29.41C492.4 29.34 492.5 29.28 492.61 29.26C492.93 29.19 493.75 29.02 494.08 28.95C494.18 28.93 494.26 28.85 494.29 28.75C494.37 28.41 494.57 27.57 494.65 27.23C494.68 27.12 494.73 27.02 494.81 26.94C494.84 26.9 494.83 26.91 494.86 26.88C494.93 26.81 495.03 26.81 495.09 26.88C495.12 26.92 495.11 26.9 495.14 26.93C495.21 27.02 495.26 27.12 495.28 27.23C495.36 27.57 495.55 28.41 495.62 28.75C495.64 28.85 495.72 28.93 495.83 28.95Z" id="abfW6Upeu"></path><path d="M537.47 40.21C537.83 40.28 538.75 40.46 539.12 40.53C539.22 40.55 539.32 40.61 539.38 40.7C539.41 40.74 539.39 40.72 539.42 40.76C539.48 40.84 539.47 40.95 539.4 41.03C539.38 41.05 539.42 41 539.4 41.03C539.33 41.11 539.23 41.17 539.12 41.19C538.76 41.28 537.83 41.5 537.47 41.58C537.37 41.61 537.29 41.69 537.27 41.79C537.19 42.13 537 42.99 536.93 43.33C536.91 43.43 536.85 43.54 536.78 43.62C536.75 43.65 536.77 43.63 536.74 43.66C536.68 43.73 536.57 43.73 536.51 43.67C536.47 43.63 536.49 43.65 536.46 43.61C536.38 43.53 536.32 43.43 536.3 43.32C536.23 42.97 536.04 42.07 535.97 41.71C535.95 41.61 535.87 41.53 535.77 41.51C535.43 41.44 534.59 41.26 534.25 41.19C534.14 41.17 534.04 41.12 533.95 41.05C533.91 41.02 533.92 41.03 533.88 41C533.81 40.95 533.8 40.84 533.86 40.78C533.91 40.74 533.92 40.72 533.96 40.68C534.04 40.6 534.14 40.55 534.25 40.52C534.58 40.45 535.4 40.28 535.73 40.21C535.83 40.19 535.91 40.12 535.93 40.01C536.01 39.68 536.22 38.83 536.3 38.49C536.32 38.38 536.38 38.28 536.45 38.2C536.49 38.16 536.48 38.18 536.51 38.14C536.57 38.07 536.68 38.07 536.74 38.14C536.77 38.18 536.75 38.16 536.78 38.19C536.86 38.28 536.91 38.38 536.93 38.49C537.01 38.83 537.19 39.68 537.27 40.01C537.29 40.11 537.37 40.19 537.47 40.21Z" id="bduyI3SBi"></path><path d="M521.71 13.41C521.71 14.42 520.89 15.24 519.88 15.24C518.87 15.24 518.05 14.42 518.05 13.41C518.05 12.4 518.87 11.58 519.88 11.58C520.89 11.58 521.71 12.4 521.71 13.41Z" id="i1J4UJLeet"></path><path d="M549.99 17.37C550.35 17.43 551.27 17.61 551.64 17.68C551.74 17.7 551.84 17.76 551.9 17.85C551.93 17.89 551.91 17.87 551.94 17.91C552 18 551.99 18.11 551.92 18.18C551.9 18.21 551.94 18.16 551.92 18.18C551.85 18.26 551.75 18.32 551.64 18.35C551.28 18.43 550.35 18.65 549.99 18.74C549.89 18.76 549.81 18.84 549.79 18.94C549.71 19.28 549.53 20.14 549.45 20.48C549.43 20.59 549.37 20.69 549.3 20.77C549.27 20.81 549.29 20.78 549.26 20.82C549.2 20.88 549.09 20.89 549.03 20.82C548.99 20.79 549.01 20.8 548.98 20.77C548.9 20.69 548.84 20.59 548.82 20.48C548.75 20.12 548.56 19.22 548.49 18.87C548.47 18.76 548.39 18.68 548.29 18.66C547.95 18.59 547.11 18.41 546.77 18.34C546.66 18.32 546.56 18.27 546.47 18.21C546.43 18.18 546.44 18.19 546.4 18.16C546.33 18.1 546.32 18 546.38 17.93C546.43 17.89 546.44 17.88 546.48 17.83C546.56 17.75 546.66 17.7 546.77 17.68C547.1 17.61 547.92 17.44 548.25 17.37C548.35 17.35 548.43 17.27 548.45 17.17C548.53 16.83 548.74 15.98 548.82 15.64C548.84 15.54 548.9 15.44 548.97 15.35C549.01 15.32 549 15.33 549.03 15.29C549.09 15.23 549.2 15.23 549.26 15.3C549.29 15.33 549.27 15.31 549.3 15.35C549.38 15.43 549.43 15.54 549.45 15.65C549.53 15.98 549.71 16.83 549.79 17.17C549.81 17.27 549.89 17.35 549.99 17.37Z" id="asbp9db4o"></path><path d="M423.18 148.09C423.7 148.19 425.03 148.45 425.56 148.55C425.71 148.57 425.85 148.67 425.94 148.8C425.98 148.85 425.96 148.83 426 148.88C426.08 149 426.06 149.16 425.97 149.27C425.93 149.31 426 149.23 425.97 149.27C425.86 149.39 425.72 149.47 425.56 149.51C425.03 149.63 423.7 149.95 423.18 150.08C423.03 150.11 422.92 150.23 422.88 150.37C422.78 150.86 422.51 152.1 422.4 152.59C422.36 152.75 422.29 152.89 422.18 153.02C422.14 153.06 422.17 153.03 422.13 153.08C422.04 153.18 421.88 153.18 421.79 153.08C421.74 153.03 421.76 153.06 421.71 153.01C421.6 152.89 421.52 152.75 421.49 152.59C421.38 152.07 421.11 150.77 421.01 150.26C420.98 150.11 420.86 150 420.71 149.97C420.23 149.86 419.01 149.61 418.53 149.5C418.37 149.47 418.22 149.4 418.09 149.31C418.03 149.26 418.05 149.28 417.99 149.23C417.88 149.16 417.87 149.01 417.96 148.91C418.03 148.85 418.05 148.83 418.11 148.77C418.23 148.65 418.37 148.57 418.53 148.54C419 148.44 420.18 148.2 420.66 148.1C420.8 148.07 420.92 147.95 420.96 147.81C421.07 147.32 421.37 146.09 421.48 145.61C421.52 145.45 421.6 145.3 421.71 145.19C421.76 145.13 421.74 145.15 421.79 145.1C421.88 145 422.04 145.01 422.12 145.11C422.17 145.16 422.14 145.13 422.18 145.18C422.29 145.3 422.36 145.45 422.4 145.61C422.51 146.1 422.78 147.32 422.88 147.8C422.92 147.95 423.03 148.06 423.18 148.09Z" id="gORtErofD"></path><path d="M439.56 168.84C439.93 168.91 440.85 169.08 441.21 169.15C441.32 169.17 441.41 169.23 441.47 169.32C441.5 169.37 441.48 169.34 441.51 169.39C441.57 169.47 441.56 169.58 441.49 169.65C441.47 169.68 441.51 169.63 441.49 169.65C441.42 169.73 441.32 169.79 441.21 169.82C440.85 169.9 439.92 170.12 439.56 170.21C439.46 170.23 439.38 170.31 439.36 170.42C439.28 170.76 439.1 171.61 439.02 171.95C439 172.06 438.95 172.16 438.87 172.24C438.84 172.28 438.86 172.25 438.83 172.29C438.77 172.36 438.66 172.36 438.6 172.29C438.57 172.26 438.58 172.27 438.55 172.24C438.47 172.16 438.42 172.06 438.39 171.95C438.32 171.59 438.13 170.69 438.06 170.34C438.04 170.24 437.96 170.16 437.86 170.13C437.52 170.06 436.68 169.89 436.34 169.81C436.23 169.79 436.13 169.74 436.04 169.68C436 169.65 436.01 169.66 435.97 169.63C435.9 169.57 435.89 169.47 435.95 169.41C436 169.36 436.01 169.35 436.05 169.3C436.13 169.22 436.23 169.17 436.34 169.15C436.67 169.08 437.49 168.91 437.82 168.84C437.92 168.82 438 168.74 438.02 168.64C438.1 168.3 438.31 167.45 438.39 167.12C438.41 167.01 438.47 166.91 438.54 166.83C438.58 166.79 438.57 166.8 438.6 166.76C438.66 166.7 438.77 166.7 438.83 166.77C438.86 166.81 438.84 166.78 438.87 166.82C438.95 166.91 439 167.01 439.02 167.12C439.1 167.45 439.28 168.3 439.36 168.64C439.38 168.74 439.46 168.82 439.56 168.84Z" id="c4aRyi7eK"></path><path d="M414.2 156.34C414.56 156.41 415.48 156.58 415.85 156.65C415.95 156.67 416.05 156.73 416.11 156.82C416.14 156.86 416.12 156.84 416.15 156.88C416.21 156.97 416.2 157.08 416.13 157.15C416.11 157.18 416.15 157.13 416.13 157.15C416.06 157.23 415.96 157.29 415.85 157.32C415.49 157.4 414.56 157.62 414.2 157.71C414.1 157.73 414.02 157.81 414 157.92C413.92 158.26 413.74 159.11 413.66 159.45C413.64 159.56 413.58 159.66 413.51 159.74C413.48 159.78 413.5 159.75 413.47 159.79C413.41 159.86 413.3 159.86 413.24 159.79C413.2 159.76 413.22 159.77 413.19 159.74C413.11 159.66 413.05 159.56 413.03 159.45C412.96 159.09 412.77 158.19 412.7 157.84C412.68 157.73 412.6 157.66 412.5 157.63C412.16 157.56 411.32 157.38 410.98 157.31C410.87 157.29 410.77 157.24 410.68 157.18C410.64 157.15 410.65 157.16 410.61 157.13C410.54 157.07 410.53 156.97 410.59 156.91C410.64 156.86 410.65 156.85 410.69 156.8C410.77 156.72 410.87 156.67 410.98 156.65C411.31 156.58 412.13 156.41 412.46 156.34C412.56 156.32 412.64 156.24 412.66 156.14C412.74 155.8 412.95 154.95 413.03 154.62C413.05 154.51 413.11 154.41 413.18 154.32C413.22 154.29 413.21 154.3 413.24 154.26C413.3 154.2 413.41 154.2 413.47 154.27C413.5 154.3 413.48 154.28 413.51 154.32C413.59 154.4 413.64 154.51 413.66 154.62C413.74 154.95 413.92 155.8 414 156.14C414.02 156.24 414.1 156.32 414.2 156.34Z" id="b1n1bWZBlY"></path><path d="M436.9 156.05C436.9 157.06 436.07 157.88 435.06 157.88C434.05 157.88 433.23 157.06 433.23 156.05C433.23 155.04 434.05 154.22 435.06 154.22C436.07 154.22 436.9 155.04 436.9 156.05Z" id="l6wmrTzS"></path><path d="M102.33 62.7C102.69 62.77 103.61 62.95 103.97 63.02C104.08 63.04 104.17 63.1 104.23 63.19C104.26 63.23 104.25 63.21 104.27 63.25C104.33 63.34 104.32 63.45 104.25 63.52C104.23 63.55 104.28 63.49 104.25 63.52C104.18 63.6 104.08 63.66 103.97 63.69C103.61 63.77 102.69 63.99 102.32 64.08C102.22 64.1 102.14 64.18 102.12 64.28C102.05 64.62 101.86 65.48 101.78 65.82C101.76 65.93 101.71 66.03 101.63 66.11C101.6 66.15 101.63 66.12 101.6 66.15C101.53 66.22 101.43 66.23 101.36 66.16C101.33 66.12 101.34 66.14 101.31 66.11C101.23 66.03 101.18 65.93 101.16 65.82C101.08 65.46 100.89 64.56 100.82 64.2C100.8 64.1 100.72 64.02 100.62 64C100.28 63.93 99.44 63.75 99.11 63.68C99 63.66 98.89 63.61 98.8 63.54C98.76 63.51 98.77 63.53 98.73 63.5C98.66 63.44 98.65 63.34 98.71 63.27C98.76 63.23 98.77 63.22 98.82 63.17C98.9 63.09 99 63.04 99.11 63.01C99.43 62.95 100.25 62.78 100.58 62.71C100.68 62.69 100.76 62.61 100.79 62.51C100.87 62.17 101.07 61.32 101.15 60.98C101.18 60.87 101.23 60.77 101.31 60.69C101.34 60.66 101.33 60.67 101.36 60.63C101.43 60.56 101.53 60.57 101.59 60.64C101.62 60.67 101.61 60.65 101.64 60.69C101.71 60.77 101.76 60.87 101.78 60.98C101.86 61.32 102.05 62.17 102.12 62.51C102.14 62.61 102.22 62.68 102.33 62.7Z" id="bcfxkGmMk"></path><path d="M125.02 62.42C125.02 63.43 124.2 64.25 123.19 64.25C122.17 64.25 121.35 63.43 121.35 62.42C121.35 61.4 122.17 60.58 123.19 60.58C124.2 60.58 125.02 61.4 125.02 62.42Z" id="d9GTrytk3"></path><path d="M185.64 152.82C186.16 152.92 187.49 153.17 188.01 153.27C188.17 153.3 188.3 153.39 188.39 153.52C188.43 153.58 188.41 153.55 188.45 153.61C188.53 153.73 188.52 153.89 188.42 154C188.39 154.04 188.45 153.96 188.42 154C188.31 154.12 188.17 154.2 188.01 154.24C187.49 154.36 186.16 154.68 185.63 154.8C185.49 154.84 185.37 154.95 185.34 155.1C185.23 155.59 184.96 156.83 184.85 157.32C184.82 157.48 184.74 157.62 184.63 157.74C184.59 157.79 184.62 157.76 184.58 157.8C184.49 157.9 184.34 157.91 184.24 157.81C184.19 157.76 184.22 157.79 184.17 157.74C184.06 157.62 183.98 157.48 183.95 157.32C183.84 156.8 183.57 155.5 183.46 154.99C183.43 154.84 183.32 154.73 183.17 154.69C182.68 154.59 181.47 154.33 180.98 154.23C180.82 154.2 180.67 154.13 180.54 154.03C180.48 153.99 180.5 154.01 180.44 153.96C180.34 153.89 180.33 153.73 180.42 153.64C180.48 153.58 180.5 153.56 180.57 153.49C180.68 153.38 180.83 153.3 180.98 153.27C181.46 153.17 182.64 152.92 183.11 152.82C183.26 152.79 183.38 152.68 183.41 152.53C183.53 152.05 183.82 150.82 183.94 150.33C183.98 150.18 184.05 150.03 184.16 149.91C184.21 149.86 184.2 149.88 184.25 149.83C184.34 149.73 184.49 149.73 184.58 149.83C184.62 149.89 184.59 149.85 184.64 149.91C184.74 150.03 184.82 150.18 184.85 150.34C184.96 150.82 185.23 152.05 185.34 152.53C185.37 152.68 185.49 152.79 185.64 152.82Z" id="a158Ds3FG0"></path><path d="M192.16 143.72C192.52 143.79 193.44 143.96 193.8 144.03C193.91 144.05 194 144.11 194.07 144.21C194.09 144.25 194.08 144.23 194.11 144.27C194.16 144.35 194.15 144.46 194.09 144.53C194.06 144.56 194.11 144.51 194.09 144.53C194.01 144.62 193.91 144.67 193.8 144.7C193.44 144.79 192.52 145 192.16 145.09C192.05 145.11 191.97 145.2 191.95 145.3C191.88 145.64 191.69 146.49 191.62 146.83C191.59 146.94 191.54 147.04 191.46 147.13C191.43 147.16 191.46 147.13 191.43 147.17C191.37 147.24 191.26 147.24 191.19 147.17C191.16 147.14 191.18 147.16 191.14 147.12C191.06 147.04 191.01 146.94 190.99 146.83C190.91 146.48 190.73 145.57 190.65 145.22C190.63 145.12 190.55 145.04 190.45 145.02C190.11 144.94 189.27 144.77 188.94 144.7C188.83 144.67 188.72 144.63 188.63 144.56C188.59 144.53 188.6 144.54 188.56 144.51C188.49 144.46 188.48 144.35 188.55 144.29C188.59 144.24 188.6 144.23 188.65 144.18C188.73 144.11 188.83 144.05 188.94 144.03C189.27 143.96 190.08 143.79 190.41 143.72C190.51 143.7 190.59 143.62 190.62 143.52C190.7 143.18 190.9 142.34 190.98 142C191.01 141.89 191.06 141.79 191.14 141.71C191.17 141.67 191.16 141.68 191.2 141.65C191.26 141.58 191.37 141.58 191.42 141.65C191.46 141.69 191.44 141.67 191.47 141.7C191.54 141.79 191.59 141.89 191.62 142C191.69 142.34 191.88 143.18 191.95 143.52C191.97 143.62 192.06 143.7 192.16 143.72Z" id="fP2nP6lc9"></path><path d="M176.84 144.68C177.21 144.75 178.13 144.92 178.49 144.99C178.6 145.01 178.69 145.07 178.75 145.16C178.78 145.2 178.77 145.18 178.79 145.22C178.85 145.31 178.84 145.42 178.77 145.49C178.75 145.52 178.8 145.47 178.77 145.49C178.7 145.57 178.6 145.63 178.49 145.66C178.13 145.74 177.21 145.96 176.84 146.05C176.74 146.07 176.66 146.15 176.64 146.26C176.56 146.6 176.38 147.45 176.3 147.79C176.28 147.9 176.23 148 176.15 148.08C176.12 148.12 176.14 148.09 176.11 148.13C176.05 148.2 175.95 148.2 175.88 148.13C175.85 148.1 175.86 148.11 175.83 148.08C175.75 148 175.7 147.9 175.67 147.79C175.6 147.43 175.41 146.53 175.34 146.18C175.32 146.07 175.24 146 175.14 145.97C174.8 145.9 173.96 145.72 173.62 145.65C173.51 145.63 173.41 145.58 173.32 145.52C173.28 145.49 173.29 145.5 173.25 145.47C173.18 145.41 173.17 145.31 173.23 145.25C173.28 145.2 173.29 145.19 173.34 145.14C173.41 145.06 173.51 145.01 173.62 144.99C173.95 144.92 174.77 144.75 175.1 144.68C175.2 144.66 175.28 144.58 175.3 144.48C175.39 144.14 175.59 143.29 175.67 142.96C175.7 142.85 175.75 142.75 175.83 142.67C175.86 142.63 175.85 142.64 175.88 142.6C175.95 142.54 176.05 142.54 176.11 142.61C176.14 142.65 176.12 142.62 176.15 142.66C176.23 142.75 176.28 142.85 176.3 142.96C176.38 143.29 176.56 144.14 176.64 144.48C176.66 144.58 176.74 144.66 176.84 144.68Z" id="dpsOW2U8"></path><path d="M89.27 29.66C89.27 30.67 88.45 31.49 87.44 31.49C86.42 31.49 85.6 30.67 85.6 29.66C85.6 28.65 86.42 27.83 87.44 27.83C88.45 27.83 89.27 28.65 89.27 29.66Z" id="a2g904ZZ30"></path><path d="M162.77 110.29C162.77 111.3 161.95 112.12 160.94 112.12C159.92 112.12 159.1 111.3 159.1 110.29C159.1 109.28 159.92 108.46 160.94 108.46C161.95 108.46 162.77 109.28 162.77 110.29Z" id="d7Pti3RPY"></path><path d="M136.52 25.99C136.52 27.01 135.7 27.83 134.69 27.83C133.67 27.83 132.85 27.01 132.85 25.99C132.85 24.98 133.67 24.16 134.69 24.16C135.7 24.16 136.52 24.98 136.52 25.99Z" id="j1mN78xklU"></path><path d="M169.92 78.71C169.92 79.72 169.1 80.54 168.08 80.54C167.07 80.54 166.25 79.72 166.25 78.71C166.25 77.7 167.07 76.87 168.08 76.87C169.1 76.87 169.92 77.7 169.92 78.71Z" id="a2ZGrhINjL"></path><path d="M175.02 128.98C175.02 129.99 174.2 130.81 173.19 130.81C172.18 130.81 171.36 129.99 171.36 128.98C171.36 127.97 172.18 127.15 173.19 127.15C174.2 127.15 175.02 127.97 175.02 128.98Z" id="f4bEbeiiMO"></path><path d="M158.91 116.31C159.27 116.37 160.19 116.55 160.55 116.62C160.66 116.64 160.75 116.7 160.82 116.79C160.84 116.83 160.83 116.81 160.86 116.85C160.91 116.94 160.9 117.05 160.84 117.12C160.81 117.15 160.86 117.1 160.84 117.12C160.76 117.2 160.66 117.26 160.55 117.29C160.19 117.37 159.27 117.59 158.91 117.68C158.8 117.7 158.72 117.78 158.7 117.88C158.63 118.23 158.44 119.08 158.37 119.42C158.34 119.53 158.29 119.63 158.21 119.71C158.18 119.75 158.21 119.72 158.18 119.76C158.12 119.82 158.01 119.83 157.94 119.76C157.91 119.73 157.93 119.74 157.89 119.71C157.81 119.63 157.76 119.53 157.74 119.42C157.66 119.06 157.48 118.16 157.4 117.81C157.38 117.7 157.3 117.62 157.2 117.6C156.86 117.53 156.02 117.35 155.69 117.28C155.58 117.26 155.47 117.21 155.38 117.15C155.34 117.12 155.35 117.13 155.31 117.1C155.24 117.04 155.23 116.94 155.3 116.87C155.34 116.83 155.35 116.82 155.4 116.77C155.48 116.69 155.58 116.64 155.69 116.62C156.02 116.55 156.83 116.38 157.16 116.31C157.26 116.29 157.34 116.21 157.37 116.11C157.45 115.77 157.65 114.92 157.73 114.59C157.76 114.48 157.81 114.38 157.89 114.29C157.92 114.26 157.91 114.27 157.95 114.23C158.01 114.17 158.12 114.17 158.17 114.24C158.21 114.27 158.19 114.25 158.22 114.29C158.29 114.37 158.34 114.48 158.37 114.59C158.44 114.92 158.63 115.77 158.7 116.11C158.72 116.21 158.81 116.29 158.91 116.31Z" id="a3QqaKxYXr"></path><path d="M95.84 33.62C96.21 33.68 97.13 33.86 97.49 33.93C97.6 33.95 97.69 34.01 97.75 34.1C97.78 34.14 97.77 34.12 97.79 34.16C97.85 34.25 97.84 34.36 97.77 34.43C97.75 34.46 97.8 34.41 97.77 34.43C97.7 34.51 97.6 34.57 97.49 34.6C97.13 34.68 96.21 34.9 95.84 34.99C95.74 35.01 95.66 35.09 95.64 35.19C95.56 35.53 95.38 36.39 95.3 36.73C95.28 36.84 95.23 36.94 95.15 37.02C95.12 37.06 95.14 37.03 95.11 37.07C95.05 37.13 94.95 37.14 94.88 37.07C94.85 37.04 94.86 37.05 94.83 37.02C94.75 36.94 94.7 36.84 94.67 36.73C94.6 36.37 94.41 35.47 94.34 35.12C94.32 35.01 94.24 34.93 94.14 34.91C93.8 34.84 92.96 34.66 92.62 34.59C92.51 34.57 92.41 34.52 92.32 34.46C92.28 34.43 92.29 34.44 92.25 34.41C92.18 34.35 92.17 34.25 92.23 34.18C92.28 34.14 92.29 34.13 92.34 34.08C92.41 34 92.51 33.95 92.62 33.93C92.95 33.86 93.77 33.69 94.1 33.62C94.2 33.6 94.28 33.52 94.3 33.42C94.39 33.08 94.59 32.23 94.67 31.89C94.7 31.79 94.75 31.69 94.83 31.6C94.86 31.57 94.85 31.58 94.88 31.54C94.95 31.48 95.05 31.48 95.11 31.55C95.14 31.58 95.12 31.56 95.15 31.6C95.23 31.68 95.28 31.79 95.3 31.9C95.38 32.23 95.56 33.08 95.64 33.42C95.66 33.52 95.74 33.6 95.84 33.62Z" id="c7R6YGGpm"></path><path d="M152.39 101.81C152.91 101.91 154.24 102.17 154.76 102.27C154.92 102.3 155.05 102.39 155.14 102.52C155.18 102.58 155.16 102.55 155.2 102.61C155.28 102.73 155.27 102.89 155.17 102.99C155.14 103.03 155.2 102.96 155.17 102.99C155.06 103.11 154.92 103.19 154.76 103.23C154.24 103.36 152.91 103.67 152.38 103.8C152.24 103.83 152.12 103.95 152.09 104.09C151.98 104.59 151.71 105.82 151.6 106.31C151.57 106.47 151.49 106.62 151.38 106.74C151.34 106.79 151.37 106.75 151.33 106.8C151.24 106.9 151.09 106.9 150.99 106.81C150.94 106.76 150.97 106.78 150.92 106.73C150.81 106.61 150.73 106.47 150.7 106.31C150.59 105.8 150.32 104.49 150.21 103.98C150.18 103.83 150.07 103.72 149.92 103.69C149.43 103.58 148.22 103.33 147.73 103.23C147.57 103.19 147.42 103.12 147.29 103.03C147.23 102.98 147.25 103 147.19 102.96C147.09 102.88 147.08 102.73 147.17 102.64C147.23 102.57 147.25 102.55 147.32 102.49C147.43 102.37 147.58 102.3 147.73 102.26C148.21 102.16 149.39 101.92 149.86 101.82C150.01 101.79 150.13 101.67 150.16 101.53C150.28 101.04 150.57 99.82 150.69 99.33C150.73 99.17 150.8 99.03 150.91 98.91C150.96 98.85 150.95 98.87 151 98.82C151.09 98.72 151.24 98.73 151.33 98.83C151.37 98.88 151.34 98.85 151.39 98.9C151.49 99.02 151.57 99.17 151.6 99.33C151.71 99.82 151.98 101.04 152.09 101.53C152.12 101.67 152.24 101.79 152.39 101.81Z" id="a1GrxXTB8r"></path><path d="M201.43 162.27C201.79 162.34 202.71 162.51 203.07 162.58C203.18 162.6 203.27 162.66 203.34 162.75C203.36 162.79 203.35 162.77 203.38 162.81C203.43 162.9 203.42 163.01 203.36 163.08C203.33 163.11 203.38 163.06 203.36 163.08C203.28 163.16 203.18 163.22 203.07 163.25C202.71 163.33 201.79 163.55 201.43 163.64C201.32 163.66 201.25 163.74 201.22 163.85C201.15 164.19 200.96 165.04 200.89 165.38C200.86 165.49 200.81 165.59 200.73 165.67C200.7 165.71 200.73 165.68 200.7 165.72C200.64 165.79 200.53 165.79 200.46 165.72C200.43 165.69 200.45 165.7 200.41 165.67C200.33 165.59 200.28 165.49 200.26 165.38C200.18 165.02 200 164.12 199.92 163.77C199.9 163.66 199.82 163.59 199.72 163.56C199.38 163.49 198.54 163.31 198.21 163.24C198.1 163.22 197.99 163.17 197.9 163.11C197.86 163.08 197.88 163.09 197.83 163.06C197.76 163 197.75 162.9 197.82 162.84C197.86 162.79 197.87 162.78 197.92 162.73C198 162.65 198.1 162.6 198.21 162.58C198.54 162.51 199.35 162.34 199.68 162.27C199.78 162.25 199.86 162.17 199.89 162.07C199.97 161.73 200.17 160.88 200.25 160.55C200.28 160.44 200.33 160.34 200.41 160.26C200.44 160.22 200.43 160.23 200.47 160.19C200.53 160.13 200.64 160.13 200.69 160.2C200.73 160.24 200.71 160.21 200.74 160.25C200.81 160.34 200.86 160.44 200.89 160.55C200.96 160.88 201.15 161.73 201.22 162.07C201.24 162.17 201.33 162.25 201.43 162.27Z" id="cpj6YTs6m"></path><path d="M113.84 47.04C114.21 47.11 115.13 47.28 115.49 47.35C115.6 47.37 115.69 47.43 115.75 47.53C115.78 47.57 115.77 47.55 115.79 47.59C115.85 47.67 115.84 47.78 115.77 47.85C115.75 47.88 115.8 47.83 115.77 47.85C115.7 47.94 115.6 47.99 115.49 48.02C115.13 48.11 114.21 48.32 113.84 48.41C113.74 48.43 113.66 48.51 113.64 48.62C113.56 48.96 113.38 49.81 113.3 50.15C113.28 50.26 113.23 50.36 113.15 50.45C113.12 50.48 113.14 50.45 113.11 50.49C113.05 50.56 112.95 50.56 112.88 50.49C112.85 50.46 112.86 50.48 112.83 50.44C112.75 50.36 112.7 50.26 112.67 50.15C112.6 49.79 112.41 48.89 112.34 48.54C112.32 48.44 112.24 48.36 112.14 48.34C111.8 48.26 110.96 48.09 110.62 48.02C110.51 47.99 110.41 47.95 110.32 47.88C110.28 47.85 110.29 47.86 110.25 47.83C110.18 47.78 110.17 47.67 110.23 47.61C110.28 47.56 110.29 47.55 110.34 47.5C110.41 47.43 110.51 47.37 110.62 47.35C110.95 47.28 111.77 47.11 112.1 47.04C112.2 47.02 112.28 46.94 112.3 46.84C112.39 46.5 112.59 45.66 112.67 45.32C112.7 45.21 112.75 45.11 112.83 45.03C112.86 44.99 112.85 45 112.88 44.96C112.95 44.9 113.05 44.9 113.11 44.97C113.14 45.01 113.12 44.98 113.15 45.02C113.23 45.11 113.28 45.21 113.3 45.32C113.38 45.66 113.56 46.5 113.64 46.84C113.66 46.94 113.74 47.02 113.84 47.04Z" id="a2k1OTJQML"></path><path d="M173.14 70.16C173.67 70.26 174.99 70.51 175.52 70.61C175.67 70.64 175.81 70.73 175.9 70.86C175.94 70.92 175.92 70.89 175.96 70.95C176.04 71.07 176.03 71.23 175.93 71.33C175.89 71.37 175.96 71.3 175.93 71.33C175.82 71.45 175.68 71.54 175.52 71.57C175 71.7 173.66 72.01 173.14 72.14C172.99 72.17 172.88 72.29 172.85 72.44C172.74 72.93 172.47 74.16 172.36 74.65C172.32 74.81 172.25 74.96 172.14 75.08C172.1 75.13 172.13 75.09 172.09 75.14C172 75.24 171.84 75.24 171.75 75.15C171.7 75.1 171.72 75.12 171.67 75.07C171.56 74.96 171.48 74.81 171.45 74.65C171.34 74.14 171.07 72.84 170.97 72.32C170.94 72.18 170.82 72.06 170.68 72.03C170.19 71.93 168.98 71.67 168.49 71.57C168.33 71.53 168.18 71.47 168.05 71.37C167.99 71.33 168.01 71.34 167.95 71.3C167.85 71.22 167.83 71.07 167.93 70.98C167.99 70.91 168.01 70.89 168.07 70.83C168.19 70.72 168.33 70.64 168.49 70.6C168.96 70.51 170.14 70.26 170.62 70.16C170.77 70.13 170.88 70.02 170.92 69.87C171.03 69.38 171.33 68.16 171.44 67.67C171.48 67.51 171.56 67.37 171.67 67.25C171.72 67.2 171.7 67.21 171.75 67.16C171.84 67.06 172 67.07 172.08 67.17C172.13 67.22 172.1 67.19 172.15 67.24C172.25 67.37 172.32 67.51 172.36 67.67C172.47 68.16 172.74 69.38 172.85 69.87C172.88 70.01 172.99 70.13 173.14 70.16Z" id="b1ynrGs4Vf"></path><path d="M80.39 9.7C80.91 9.8 82.24 10.05 82.76 10.15C82.92 10.18 83.05 10.27 83.14 10.4C83.18 10.46 83.16 10.43 83.2 10.49C83.28 10.61 83.27 10.77 83.17 10.87C83.14 10.91 83.2 10.84 83.17 10.87C83.06 10.99 82.92 11.08 82.76 11.11C82.24 11.24 80.91 11.55 80.38 11.68C80.24 11.71 80.12 11.83 80.09 11.98C79.98 12.47 79.71 13.7 79.6 14.19C79.57 14.35 79.49 14.5 79.38 14.62C79.34 14.67 79.37 14.63 79.33 14.68C79.24 14.78 79.09 14.78 78.99 14.69C78.94 14.64 78.97 14.66 78.92 14.61C78.81 14.5 78.73 14.35 78.7 14.19C78.59 13.68 78.32 12.38 78.21 11.86C78.18 11.72 78.07 11.6 77.92 11.57C77.43 11.47 76.22 11.21 75.73 11.11C75.57 11.07 75.42 11.01 75.29 10.91C75.23 10.87 75.25 10.88 75.19 10.84C75.09 10.76 75.08 10.61 75.17 10.52C75.23 10.45 75.25 10.43 75.32 10.37C75.43 10.26 75.58 10.18 75.73 10.14C76.21 10.05 77.39 9.8 77.86 9.7C78.01 9.67 78.13 9.56 78.16 9.41C78.28 8.92 78.57 7.7 78.69 7.21C78.73 7.05 78.8 6.91 78.91 6.79C78.96 6.74 78.95 6.75 79 6.7C79.09 6.6 79.24 6.61 79.33 6.71C79.37 6.76 79.34 6.73 79.39 6.78C79.49 6.9 79.57 7.05 79.6 7.21C79.71 7.7 79.98 8.92 80.09 9.41C80.12 9.55 80.24 9.67 80.39 9.7Z" id="a6ln4KKCb"></path><path d="M127.69 75.2C128.05 75.27 128.97 75.45 129.33 75.52C129.44 75.54 129.53 75.6 129.59 75.69C129.62 75.73 129.61 75.71 129.64 75.75C129.69 75.84 129.68 75.95 129.61 76.02C129.59 76.05 129.64 76 129.61 76.02C129.54 76.1 129.44 76.16 129.33 76.19C128.97 76.27 128.05 76.49 127.68 76.58C127.58 76.6 127.5 76.68 127.48 76.78C127.41 77.12 127.22 77.98 127.14 78.32C127.12 78.43 127.07 78.53 126.99 78.61C126.96 78.65 126.99 78.62 126.96 78.65C126.89 78.72 126.79 78.73 126.72 78.66C126.69 78.63 126.71 78.64 126.67 78.61C126.59 78.53 126.54 78.43 126.52 78.32C126.44 77.96 126.26 77.06 126.18 76.7C126.16 76.6 126.08 76.52 125.98 76.5C125.64 76.43 124.8 76.25 124.47 76.18C124.36 76.16 124.25 76.11 124.16 76.05C124.12 76.02 124.13 76.03 124.09 76C124.02 75.94 124.01 75.84 124.08 75.77C124.12 75.73 124.13 75.72 124.18 75.67C124.26 75.59 124.36 75.54 124.47 75.52C124.79 75.45 125.61 75.28 125.94 75.21C126.04 75.19 126.12 75.11 126.15 75.01C126.23 74.67 126.43 73.82 126.51 73.48C126.54 73.38 126.59 73.27 126.67 73.19C126.7 73.16 126.69 73.17 126.73 73.13C126.79 73.07 126.89 73.07 126.95 73.14C126.98 73.17 126.97 73.15 127 73.19C127.07 73.27 127.12 73.38 127.14 73.48C127.22 73.82 127.41 74.67 127.48 75.01C127.5 75.11 127.58 75.19 127.69 75.2Z" id="d23cwegGR6"></path><path d="M137.35 33.62C137.72 33.68 138.64 33.86 139 33.93C139.11 33.95 139.2 34.01 139.26 34.1C139.29 34.14 139.27 34.12 139.3 34.16C139.36 34.25 139.35 34.36 139.28 34.43C139.26 34.46 139.3 34.41 139.28 34.43C139.21 34.51 139.11 34.57 139 34.6C138.64 34.68 137.71 34.9 137.35 34.99C137.25 35.01 137.17 35.09 137.15 35.19C137.07 35.53 136.89 36.39 136.81 36.73C136.79 36.84 136.74 36.94 136.66 37.02C136.63 37.06 136.65 37.03 136.62 37.07C136.56 37.13 136.45 37.14 136.39 37.07C136.36 37.04 136.37 37.05 136.34 37.02C136.26 36.94 136.21 36.84 136.18 36.73C136.11 36.37 135.92 35.47 135.85 35.12C135.83 35.01 135.75 34.93 135.65 34.91C135.31 34.84 134.47 34.66 134.13 34.59C134.02 34.57 133.92 34.52 133.83 34.46C133.79 34.43 133.8 34.44 133.76 34.41C133.69 34.35 133.68 34.25 133.74 34.18C133.79 34.14 133.8 34.13 133.84 34.08C133.92 34 134.02 33.95 134.13 33.93C134.46 33.86 135.28 33.69 135.61 33.62C135.71 33.6 135.79 33.52 135.81 33.42C135.89 33.08 136.1 32.23 136.18 31.89C136.2 31.79 136.26 31.69 136.33 31.6C136.37 31.57 136.36 31.58 136.39 31.54C136.45 31.48 136.56 31.48 136.62 31.55C136.65 31.58 136.63 31.56 136.66 31.6C136.74 31.68 136.79 31.79 136.81 31.9C136.89 32.23 137.07 33.08 137.15 33.42C137.17 33.52 137.25 33.6 137.35 33.62Z" id="a1fQXQziz5"></path><path d="M128.67 23.47C129.04 23.54 129.95 23.71 130.32 23.78C130.42 23.8 130.52 23.87 130.58 23.96C130.61 24 130.59 23.98 130.62 24.02C130.68 24.1 130.67 24.21 130.6 24.29C130.58 24.31 130.62 24.26 130.6 24.29C130.53 24.37 130.43 24.42 130.32 24.45C129.96 24.54 129.03 24.76 128.67 24.84C128.57 24.87 128.49 24.95 128.47 25.05C128.39 25.39 128.21 26.24 128.13 26.58C128.11 26.69 128.05 26.79 127.98 26.88C127.95 26.91 127.97 26.89 127.94 26.92C127.88 26.99 127.77 26.99 127.71 26.92C127.67 26.89 127.69 26.91 127.66 26.87C127.58 26.79 127.53 26.69 127.5 26.58C127.43 26.23 127.24 25.33 127.17 24.97C127.15 24.87 127.07 24.79 126.97 24.77C126.63 24.7 125.79 24.52 125.45 24.45C125.34 24.42 125.24 24.38 125.15 24.31C125.11 24.28 125.12 24.29 125.08 24.26C125.01 24.21 125 24.1 125.06 24.04C125.11 23.99 125.12 23.98 125.16 23.94C125.24 23.86 125.34 23.8 125.45 23.78C125.78 23.71 126.6 23.54 126.93 23.47C127.03 23.45 127.11 23.37 127.13 23.27C127.21 22.93 127.42 22.09 127.5 21.75C127.52 21.64 127.58 21.54 127.65 21.46C127.69 21.42 127.68 21.43 127.71 21.4C127.77 21.33 127.88 21.33 127.94 21.4C127.97 21.44 127.95 21.42 127.98 21.45C128.06 21.54 128.11 21.64 128.13 21.75C128.21 22.09 128.39 22.93 128.47 23.27C128.49 23.37 128.57 23.45 128.67 23.47Z" id="a8pIdPKXT"></path><path d="M173.57 84.64C173.93 84.71 174.85 84.89 175.22 84.96C175.32 84.98 175.42 85.04 175.48 85.13C175.51 85.17 175.49 85.15 175.52 85.19C175.57 85.27 175.57 85.38 175.5 85.46C175.48 85.48 175.52 85.43 175.5 85.46C175.42 85.54 175.33 85.6 175.22 85.62C174.85 85.71 173.93 85.93 173.57 86.01C173.47 86.04 173.39 86.12 173.37 86.22C173.29 86.56 173.1 87.42 173.03 87.76C173 87.86 172.95 87.97 172.88 88.05C172.85 88.08 172.87 88.06 172.84 88.09C172.78 88.16 172.67 88.16 172.61 88.1C172.57 88.06 172.59 88.08 172.55 88.04C172.48 87.96 172.42 87.86 172.4 87.75C172.33 87.4 172.14 86.5 172.07 86.14C172.04 86.04 171.97 85.96 171.86 85.94C171.53 85.87 170.69 85.69 170.35 85.62C170.24 85.6 170.14 85.55 170.04 85.48C170 85.45 170.02 85.46 169.98 85.43C169.9 85.38 169.9 85.27 169.96 85.21C170 85.17 170.02 85.15 170.06 85.11C170.14 85.03 170.24 84.98 170.35 84.95C170.68 84.88 171.5 84.71 171.82 84.65C171.93 84.62 172.01 84.55 172.03 84.44C172.11 84.11 172.31 83.26 172.4 82.92C172.42 82.81 172.48 82.71 172.55 82.63C172.59 82.59 172.57 82.61 172.61 82.57C172.67 82.5 172.78 82.51 172.84 82.57C172.87 82.61 172.85 82.59 172.88 82.63C172.95 82.71 173 82.81 173.03 82.92C173.1 83.26 173.29 84.11 173.37 84.44C173.39 84.54 173.47 84.62 173.57 84.64Z" id="b3iBSKYd2"></path><path d="M139.96 15.3C140.49 15.4 141.82 15.65 142.34 15.75C142.5 15.78 142.63 15.87 142.72 16C142.76 16.06 142.74 16.03 142.78 16.09C142.86 16.21 142.85 16.37 142.75 16.48C142.72 16.52 142.78 16.44 142.75 16.48C142.64 16.6 142.5 16.68 142.34 16.72C141.82 16.84 140.49 17.16 139.96 17.28C139.81 17.32 139.7 17.43 139.67 17.58C139.56 18.07 139.29 19.31 139.18 19.8C139.15 19.96 139.07 20.1 138.96 20.22C138.92 20.27 138.95 20.24 138.91 20.28C138.82 20.38 138.67 20.39 138.57 20.29C138.52 20.24 138.55 20.27 138.5 20.22C138.38 20.1 138.31 19.95 138.27 19.8C138.17 19.28 137.9 17.98 137.79 17.47C137.76 17.32 137.65 17.21 137.5 17.17C137.01 17.07 135.8 16.81 135.31 16.71C135.15 16.68 135 16.61 134.87 16.51C134.81 16.47 134.83 16.49 134.77 16.44C134.67 16.37 134.66 16.21 134.75 16.12C134.81 16.06 134.83 16.04 134.9 15.97C135.01 15.86 135.15 15.78 135.31 15.75C135.79 15.65 136.97 15.4 137.44 15.3C137.59 15.27 137.71 15.16 137.74 15.01C137.86 14.53 138.15 13.3 138.27 12.81C138.3 12.66 138.38 12.51 138.49 12.39C138.54 12.34 138.53 12.36 138.58 12.31C138.67 12.21 138.82 12.21 138.91 12.31C138.95 12.37 138.92 12.33 138.97 12.39C139.07 12.51 139.15 12.66 139.18 12.82C139.29 13.3 139.56 14.52 139.67 15.01C139.7 15.16 139.82 15.27 139.96 15.3Z" id="b1iFzl4OZ4"></path><path d="M179.68 100.12C179.68 101.13 178.86 101.95 177.84 101.95C176.83 101.95 176.01 101.13 176.01 100.12C176.01 99.11 176.83 98.29 177.84 98.29C178.86 98.29 179.68 99.11 179.68 100.12Z" id="cYoh0s312"></path></defs><g><g><g><use xlink:href="#gyflhEY96" opacity="1" fill="#41cdcb" fill-opacity="1"></use></g><g><use xlink:href="#baDcYhaLF" opacity="1" fill="#d73820" fill-opacity="1"></use></g><g><use xlink:href="#bmDaBY6dh" opacity="1" fill="#cdcdce" fill-opacity="1"></use><g><use xlink:href="#bmDaBY6dh" opacity="1" fill-opacity="0" stroke="#000000" stroke-width="1" stroke-opacity="0"></use></g></g><g><use xlink:href="#d3vw77JJla" opacity="1" fill="#b1b1b1" fill-opacity="1"></use></g><g><use xlink:href="#h1dMvrBwsx" opacity="1" fill="url(#gradientb21Xlq3hvJ)"></use></g><g><use xlink:href="#aGtledYkW" opacity="1" fill="#0078d7" fill-opacity="1"></use></g><g><use xlink:href="#a2iUrzPLv" opacity="1" fill="#2eadac" fill-opacity="1"></use></g><g><use xlink:href="#dA7rRd0B6" opacity="1" fill="#d1d1d1" fill-opacity="1"></use></g><g><use xlink:href="#c2LCuQyIT2" opacity="1" fill="#fbfbfb" fill-opacity="1"></use></g><g><use xlink:href="#a1CHZJ4AD" opacity="1" fill="#ededed" fill-opacity="1"></use></g><g><use xlink:href="#d1ZRiyE26U" opacity="1" fill="#d1d1d1" fill-opacity="1"></use></g><g><use xlink:href="#kviaydNa" opacity="1" fill="#e1dfe1" fill-opacity="1"></use></g><g><use xlink:href="#b1wiC1f3AD" opacity="1" fill="#ededed" fill-opacity="1"></use></g><g><use xlink:href="#a3pBaUbycA" opacity="1" fill="url(#gradientafyuyoFOa)"></use></g><g><use xlink:href="#bqYg2bkTz" opacity="1" fill="#d73820" fill-opacity="1"></use><g><use xlink:href="#bqYg2bkTz" opacity="1" fill-opacity="0" stroke="#000000" stroke-width="1" stroke-opacity="0"></use></g></g><g><use xlink:href="#a2yzAAQwgQ" opacity="1" fill="#1f9948" fill-opacity="1"></use><g><use xlink:href="#a2yzAAQwgQ" opacity="1" fill-opacity="0" stroke="#000000" stroke-width="1" stroke-opacity="0"></use></g></g><g><use xlink:href="#d1lHcQyGXg" opacity="1" fill="url(#gradienth199edsvAH)"></use></g><g><use xlink:href="#csgO2oZwl" opacity="1" fill="url(#gradientkVndCOCeX)"></use></g><g><use xlink:href="#deU93Ve4x" opacity="1" fill="#0078d7" fill-opacity="1"></use><g><use xlink:href="#deU93Ve4x" opacity="1" fill-opacity="0" stroke="#000000" stroke-width="1" stroke-opacity="0"></use></g></g><g><use xlink:href="#cg5KZ3jfR" opacity="1" fill="#ededed" fill-opacity="1"></use></g><g><use xlink:href="#a38MQ8UvQO" opacity="1" fill="#ffffff" fill-opacity="1"></use></g><g><use xlink:href="#cqtApWQcz" opacity="1" fill="#ffffff" fill-opacity="1"></use></g><g><use xlink:href="#a27LRtjYCG" opacity="1" fill="#ffffff" fill-opacity="1"></use><g><use xlink:href="#a27LRtjYCG" opacity="1" fill-opacity="0" stroke="#000000" stroke-width="1" stroke-opacity="0"></use></g></g><g><use xlink:href="#k2FHuSvGpH" opacity="1" fill="url(#gradientaaih425VVt)"></use><g><use xlink:href="#k2FHuSvGpH" opacity="1" fill-opacity="0" stroke="#000000" stroke-width="1" stroke-opacity="0"></use></g></g><g><use xlink:href="#i1z3aCxiP6" opacity="1" fill="#ffffff" fill-opacity="1"></use><g><use xlink:href="#i1z3aCxiP6" opacity="1" fill-opacity="0" stroke="#000000" stroke-width="1" stroke-opacity="0"></use></g></g><g><use xlink:href="#a2tf8JlxMB" opacity="1" fill="#ffffff" fill-opacity="1"></use><g><use xlink:href="#a2tf8JlxMB" opacity="1" fill-opacity="0" stroke="#000000" stroke-width="1" stroke-opacity="0"></use></g></g><g><use xlink:href="#d2wbaWj7I" opacity="1" fill="#ffffff" fill-opacity="1"></use><g><use xlink:href="#d2wbaWj7I" opacity="1" fill-opacity="0" stroke="#000000" stroke-width="1" stroke-opacity="0"></use></g></g><g><use xlink:href="#h7M9T1nPzP" opacity="1" fill="#ffffff" fill-opacity="1"></use><g><use xlink:href="#h7M9T1nPzP" opacity="1" fill-opacity="0" stroke="#000000" stroke-width="1" stroke-opacity="0"></use></g></g><g><use xlink:href="#a1TcjcISZj" opacity="1" fill="#ffffff" fill-opacity="1"></use><g><use xlink:href="#a1TcjcISZj" opacity="1" fill-opacity="0" stroke="#000000" stroke-width="1" stroke-opacity="0"></use></g></g><g><use xlink:href="#jzBiRQg9" opacity="1" fill="#ffffff" fill-opacity="1"></use></g><g><use xlink:href="#b2iGCdQyAS" opacity="1" fill="#ffffff" fill-opacity="1"></use></g><g><use xlink:href="#dDMUs6LEz" opacity="1" fill="#ffffff" fill-opacity="1"></use></g><g><use xlink:href="#ehLFTJXgG" opacity="1" fill="#ffffff" fill-opacity="1"></use><g><use xlink:href="#ehLFTJXgG" opacity="1" fill-opacity="0" stroke="#000000" stroke-width="1" stroke-opacity="0"></use></g></g><g><use xlink:href="#bAeIGyWJe" opacity="1" fill="#ffffff" fill-opacity="1"></use><g><use xlink:href="#bAeIGyWJe" opacity="1" fill-opacity="0" stroke="#000000" stroke-width="1" stroke-opacity="0"></use></g></g><g><use xlink:href="#abfW6Upeu" opacity="1" fill="#ffffff" fill-opacity="1"></use><g><use xlink:href="#abfW6Upeu" opacity="1" fill-opacity="0" stroke="#000000" stroke-width="1" stroke-opacity="0"></use></g></g><g><use xlink:href="#bduyI3SBi" opacity="1" fill="#ffffff" fill-opacity="1"></use><g><use xlink:href="#bduyI3SBi" opacity="1" fill-opacity="0" stroke="#000000" stroke-width="1" stroke-opacity="0"></use></g></g><g><use xlink:href="#i1J4UJLeet" opacity="1" fill="#ffffff" fill-opacity="1"></use></g><g><use xlink:href="#asbp9db4o" opacity="1" fill="#ffffff" fill-opacity="1"></use><g><use xlink:href="#asbp9db4o" opacity="1" fill-opacity="0" stroke="#000000" stroke-width="1" stroke-opacity="0"></use></g></g><g><use xlink:href="#gORtErofD" opacity="1" fill="#ffffff" fill-opacity="1"></use><g><use xlink:href="#gORtErofD" opacity="1" fill-opacity="0" stroke="#000000" stroke-width="1" stroke-opacity="0"></use></g></g><g><use xlink:href="#c4aRyi7eK" opacity="1" fill="#ffffff" fill-opacity="1"></use><g><use xlink:href="#c4aRyi7eK" opacity="1" fill-opacity="0" stroke="#000000" stroke-width="1" stroke-opacity="0"></use></g></g><g><use xlink:href="#b1n1bWZBlY" opacity="1" fill="#ffffff" fill-opacity="1"></use><g><use xlink:href="#b1n1bWZBlY" opacity="1" fill-opacity="0" stroke="#000000" stroke-width="1" stroke-opacity="0"></use></g></g><g><use xlink:href="#l6wmrTzS" opacity="1" fill="#ffffff" fill-opacity="1"></use></g><g><use xlink:href="#bcfxkGmMk" opacity="1" fill="#ffffff" fill-opacity="1"></use><g><use xlink:href="#bcfxkGmMk" opacity="1" fill-opacity="0" stroke="#000000" stroke-width="1" stroke-opacity="0"></use></g></g><g><use xlink:href="#d9GTrytk3" opacity="1" fill="#ffffff" fill-opacity="1"></use></g><g><use xlink:href="#a158Ds3FG0" opacity="1" fill="#ffffff" fill-opacity="1"></use><g><use xlink:href="#a158Ds3FG0" opacity="1" fill-opacity="0" stroke="#000000" stroke-width="1" stroke-opacity="0"></use></g></g><g><use xlink:href="#fP2nP6lc9" opacity="1" fill="#ffffff" fill-opacity="1"></use><g><use xlink:href="#fP2nP6lc9" opacity="1" fill-opacity="0" stroke="#000000" stroke-width="1" stroke-opacity="0"></use></g></g><g><use xlink:href="#dpsOW2U8" opacity="1" fill="#ffffff" fill-opacity="1"></use><g><use xlink:href="#dpsOW2U8" opacity="1" fill-opacity="0" stroke="#000000" stroke-width="1" stroke-opacity="0"></use></g></g><g><use xlink:href="#a2g904ZZ30" opacity="1" fill="#ffffff" fill-opacity="1"></use></g><g><use xlink:href="#d7Pti3RPY" opacity="1" fill="#ffffff" fill-opacity="1"></use></g><g><use xlink:href="#j1mN78xklU" opacity="1" fill="#ffffff" fill-opacity="1"></use></g><g><use xlink:href="#a2ZGrhINjL" opacity="1" fill="#ffffff" fill-opacity="1"></use></g><g><use xlink:href="#f4bEbeiiMO" opacity="1" fill="#ffffff" fill-opacity="1"></use></g><g><use xlink:href="#a3QqaKxYXr" opacity="1" fill="#ffffff" fill-opacity="1"></use><g><use xlink:href="#a3QqaKxYXr" opacity="1" fill-opacity="0" stroke="#000000" stroke-width="1" stroke-opacity="0"></use></g></g><g><use xlink:href="#c7R6YGGpm" opacity="1" fill="#ffffff" fill-opacity="1"></use><g><use xlink:href="#c7R6YGGpm" opacity="1" fill-opacity="0" stroke="#000000" stroke-width="1" stroke-opacity="0"></use></g></g><g><use xlink:href="#a1GrxXTB8r" opacity="1" fill="#ffffff" fill-opacity="1"></use><g><use xlink:href="#a1GrxXTB8r" opacity="1" fill-opacity="0" stroke="#000000" stroke-width="1" stroke-opacity="0"></use></g></g><g><use xlink:href="#cpj6YTs6m" opacity="1" fill="#ffffff" fill-opacity="1"></use><g><use xlink:href="#cpj6YTs6m" opacity="1" fill-opacity="0" stroke="#000000" stroke-width="1" stroke-opacity="0"></use></g></g><g><use xlink:href="#a2k1OTJQML" opacity="1" fill="#ffffff" fill-opacity="1"></use><g><use xlink:href="#a2k1OTJQML" opacity="1" fill-opacity="0" stroke="#000000" stroke-width="1" stroke-opacity="0"></use></g></g><g><use xlink:href="#b1ynrGs4Vf" opacity="1" fill="#ffffff" fill-opacity="1"></use><g><use xlink:href="#b1ynrGs4Vf" opacity="1" fill-opacity="0" stroke="#000000" stroke-width="1" stroke-opacity="0"></use></g></g><g><use xlink:href="#a6ln4KKCb" opacity="1" fill="#ffffff" fill-opacity="1"></use><g><use xlink:href="#a6ln4KKCb" opacity="1" fill-opacity="0" stroke="#000000" stroke-width="1" stroke-opacity="0"></use></g></g><g><use xlink:href="#d23cwegGR6" opacity="1" fill="#ffffff" fill-opacity="1"></use><g><use xlink:href="#d23cwegGR6" opacity="1" fill-opacity="0" stroke="#000000" stroke-width="1" stroke-opacity="0"></use></g></g><g><use xlink:href="#a1fQXQziz5" opacity="1" fill="#ffffff" fill-opacity="1"></use><g><use xlink:href="#a1fQXQziz5" opacity="1" fill-opacity="0" stroke="#000000" stroke-width="1" stroke-opacity="0"></use></g></g><g><use xlink:href="#a8pIdPKXT" opacity="1" fill="#ffffff" fill-opacity="1"></use><g><use xlink:href="#a8pIdPKXT" opacity="1" fill-opacity="0" stroke="#000000" stroke-width="1" stroke-opacity="0"></use></g></g><g><use xlink:href="#b3iBSKYd2" opacity="1" fill="#ffffff" fill-opacity="1"></use><g><use xlink:href="#b3iBSKYd2" opacity="1" fill-opacity="0" stroke="#000000" stroke-width="1" stroke-opacity="0"></use></g></g><g><use xlink:href="#b1iFzl4OZ4" opacity="1" fill="#ffffff" fill-opacity="1"></use><g><use xlink:href="#b1iFzl4OZ4" opacity="1" fill-opacity="0" stroke="#000000" stroke-width="1" stroke-opacity="0"></use></g></g><g><use xlink:href="#cYoh0s312" opacity="1" fill="#ffffff" fill-opacity="1"></use></g></g></g></svg>